<svg width="60" height="60" viewBox="0 0 60 60" fill="none" xmlns="http://www.w3.org/2000/svg">
<g clip-path="url(#clip0_45_619)">
<path d="M31.8387 0.0344954C33.078 -0.0103537 34.4175 0.0153187 35.6627 0.016029L59.713 0.0229281L59.7089 11.2656C58.1468 11.2056 56.3128 11.2435 54.738 11.2432L37.3796 11.2443C35.655 11.2437 33.7853 11.2083 32.0734 11.2779C27.9199 11.4639 24.0089 13.2865 21.1952 16.3475C18.2734 19.4834 16.727 23.6576 16.9005 27.9402C17.0883 32.4277 19.024 36.2961 22.3026 39.3194C23.2226 40.1423 24.0765 40.6917 25.1032 41.3614C25.0675 42.3776 25.1036 43.4354 25.0908 44.4557C25.0537 47.41 25.1526 50.4413 25.0598 53.3885C20.8895 52.0603 17.7074 50.3155 14.4459 47.3405C9.16118 42.4649 6.01424 35.7004 5.68894 28.5173C5.35475 21.2446 7.94996 14.1414 12.8939 8.79711C17.7837 3.46139 24.6064 0.30567 31.8387 0.0344954Z" fill="#0048FF"/>
<path d="M32.7017 12.9225C34.0731 12.9203 36.4515 12.8464 37.7273 12.9568C37.6563 14.5506 37.7202 16.5834 37.7207 18.2274L37.7228 59.468L31.5763 59.472L26.4857 59.466L26.485 19.5629C26.4849 18.0194 26.4177 15.8791 26.5061 14.3945C28.6702 13.3788 30.3302 12.9983 32.7017 12.9225Z" fill="#0048FF"/>
<path d="M0 0.0225287L12.5246 0.0167954C15.8109 0.0166939 19.2535 -0.0349026 22.527 0.0432788C19.8698 0.945435 17.3394 2.44666 15.0847 4.09852C12.6303 5.9421 9.97338 8.65313 8.31092 11.255L3.013 11.2437C2.05179 11.2451 0.95157 11.2241 0.000354557 11.2684L0 0.0225287Z" fill="#0048FF"/>
<path d="M39.1611 53.9425V42.0707C47.3597 38.6614 49.1388 30.9092 49.0035 27.4593H60.2665C60.1041 44.993 46.1286 52.4205 39.1611 53.9425Z" fill="#0048FF"/>
<mask id="mask0_45_619" style="mask-type:alpha" maskUnits="userSpaceOnUse" x="0" y="0" width="61" height="60">
<path d="M31.8387 0.0344954C33.078 -0.0103537 34.4175 0.0153187 35.6627 0.016029L59.713 0.0229281L59.7089 11.2656C58.1468 11.2056 56.3128 11.2435 54.738 11.2432L37.3796 11.2443C35.655 11.2437 33.7853 11.2083 32.0734 11.2779C27.9199 11.4639 24.0089 13.2865 21.1952 16.3475C18.2734 19.4834 16.727 23.6576 16.9005 27.9402C17.0883 32.4277 19.024 36.2961 22.3026 39.3194C23.2226 40.1423 24.0765 40.6917 25.1032 41.3614C25.0675 42.3776 25.1036 43.4354 25.0908 44.4557C25.0537 47.41 25.1526 50.4413 25.0598 53.3885C20.8895 52.0603 17.7074 50.3155 14.4459 47.3405C9.16118 42.4649 6.01424 35.7004 5.68894 28.5173C5.35475 21.2446 7.94996 14.1414 12.8939 8.79711C17.7837 3.46139 24.6064 0.30567 31.8387 0.0344954Z" fill="url(#paint0_linear_45_619)"/>
<path d="M32.7017 12.9225C34.0731 12.9203 36.4515 12.8464 37.7273 12.9568C37.6563 14.5506 37.7202 16.5834 37.7207 18.2274L37.7228 59.468L31.5763 59.472L26.4857 59.466L26.485 19.5629C26.4849 18.0194 26.4177 15.8791 26.5061 14.3945C28.6702 13.3788 30.3302 12.9983 32.7017 12.9225Z" fill="url(#paint1_linear_45_619)"/>
<path d="M0 0.0225287L12.5246 0.0167954C15.8109 0.0166939 19.2535 -0.0349026 22.527 0.0432788C19.8698 0.945435 17.3394 2.44666 15.0847 4.09852C12.6303 5.9421 9.97338 8.65313 8.31092 11.255L3.013 11.2437C2.05179 11.2451 0.95157 11.2241 0.000354557 11.2684L0 0.0225287Z" fill="url(#paint2_linear_45_619)"/>
<path d="M39.1611 53.9425V42.0707C47.3597 38.6614 49.1388 30.9092 49.0035 27.4593H60.2665C60.1041 44.993 46.1286 52.4205 39.1611 53.9425Z" fill="url(#paint3_linear_45_619)"/>
</mask>
<g mask="url(#mask0_45_619)">
<g filter="url(#filter0_f_45_619)">
<ellipse cx="17.8012" cy="-6.48221" rx="99.2272" ry="45.2389" transform="rotate(-38.7714 17.8012 -6.48221)" fill="#27C5FF"/>
</g>
<g filter="url(#filter1_f_45_619)">
<ellipse cx="49.188" cy="73.4275" rx="99.2272" ry="45.2389" transform="rotate(-38.7714 49.188 73.4275)" fill="#197CFF"/>
</g>
</g>
</g>
<defs>
<filter id="filter0_f_45_619" x="-86.0388" y="-99.3759" width="207.68" height="185.787" filterUnits="userSpaceOnUse" color-interpolation-filters="sRGB">
<feFlood flood-opacity="0" result="BackgroundImageFix"/>
<feBlend mode="normal" in="SourceGraphic" in2="BackgroundImageFix" result="shape"/>
<feGaussianBlur stdDeviation="10.7157" result="effect1_foregroundBlur_45_619"/>
</filter>
<filter id="filter1_f_45_619" x="-54.6521" y="-19.4662" width="207.68" height="185.787" filterUnits="userSpaceOnUse" color-interpolation-filters="sRGB">
<feFlood flood-opacity="0" result="BackgroundImageFix"/>
<feBlend mode="normal" in="SourceGraphic" in2="BackgroundImageFix" result="shape"/>
<feGaussianBlur stdDeviation="10.7157" result="effect1_foregroundBlur_45_619"/>
</filter>
<linearGradient id="paint0_linear_45_619" x1="30.1332" y1="2.17278e-08" x2="30.1332" y2="59.472" gradientUnits="userSpaceOnUse">
<stop stop-color="#00B3FF"/>
<stop offset="1" stop-color="#0074D3"/>
</linearGradient>
<linearGradient id="paint1_linear_45_619" x1="30.1332" y1="2.17278e-08" x2="30.1332" y2="59.472" gradientUnits="userSpaceOnUse">
<stop stop-color="#00B3FF"/>
<stop offset="1" stop-color="#0074D3"/>
</linearGradient>
<linearGradient id="paint2_linear_45_619" x1="30.1332" y1="2.17278e-08" x2="30.1332" y2="59.472" gradientUnits="userSpaceOnUse">
<stop stop-color="#00B3FF"/>
<stop offset="1" stop-color="#0074D3"/>
</linearGradient>
<linearGradient id="paint3_linear_45_619" x1="30.1332" y1="2.17278e-08" x2="30.1332" y2="59.472" gradientUnits="userSpaceOnUse">
<stop stop-color="#00B3FF"/>
<stop offset="1" stop-color="#0074D3"/>
</linearGradient>
<clipPath id="clip0_45_619">
<rect width="60" height="60" fill="white"/>
</clipPath>
</defs>
</svg>
