<svg width="29" height="29" viewBox="0 0 29 29" fill="none" xmlns="http://www.w3.org/2000/svg">
<path d="M18.1107 17.0624C21.4553 17.0624 24.1667 14.3621 24.1667 11.0312C24.1667 7.70027 21.4553 5 18.1107 5C14.7661 5 12.0548 7.70027 12.0548 11.0312C12.0548 12.5741 12.759 13.6962 12.759 13.6962L5.43548 20.9897C5.10685 21.317 4.64679 22.1679 5.43548 22.9533L6.28049 23.7949C6.60909 24.0754 7.43531 24.4682 8.11133 23.7949L9.09717 22.8131C10.083 23.7949 11.2097 23.2339 11.6322 22.6728C12.3364 21.691 11.4914 20.7092 11.4914 20.7092L11.7731 20.4287C13.125 21.7751 14.3081 20.9897 14.7306 20.4287C15.4348 19.4469 14.7306 18.4651 14.7306 18.4651C14.449 17.904 13.8857 17.904 14.5898 17.2027L15.4348 16.3611C16.1108 16.9221 17.5004 17.0624 18.1107 17.0624Z" stroke="black" stroke-width="1.3" stroke-linejoin="round"/>
<path d="M20.2234 11.0313C20.2234 12.1932 19.2776 13.1352 18.111 13.1352C16.9442 13.1352 15.9984 12.1932 15.9984 11.0313C15.9984 9.86932 16.9442 8.92737 18.111 8.92737C19.2776 8.92737 20.2234 9.86932 20.2234 11.0313Z" stroke="black" stroke-width="1.3"/>
</svg>
